<svg width="140" height="28" viewBox="0 0 140 28" fill="none" xmlns="http://www.w3.org/2000/svg">
<path d="M18.2011 21.1145L16.9941 22.3206L12.8212 18.1477V25.594H11.1142V18.1477L6.94036 22.3206L5.73431 21.1145L11.9677 14.8811L18.2011 21.1145ZM10.7607 13.6741L4.52728 19.9075L3.32122 18.7014L7.49407 14.5276L0.000909805 14.5266V12.8215L7.49407 12.8206L3.32122 8.64673L4.52728 7.44067L10.7607 13.6741ZM20.6142 8.64673L16.4404 12.8206L23.8876 12.8215L23.8886 13.6741L23.8876 14.5266L16.4404 14.5276L20.6142 18.7014L19.4072 19.9075L13.1738 13.6741L19.4072 7.44067L20.6142 8.64673ZM12.8202 1.7063L12.8212 9.20044L16.9941 5.02661L18.2011 6.23364L11.9677 12.467L5.73431 6.23364L6.94036 5.02661L11.1142 9.20044V1.7063L11.9677 1.70532L12.8202 1.7063Z" fill="white"/>
<text x="32" y="19.5" font-family="'DM Sans', ui-sans-serif, -apple-system, BlinkMacSystemFont, 'Helvetica Neue', Arial, sans-serif" font-size="17" font-weight="700" letter-spacing="0.1" fill="white">Interlock</text>
</svg>
